<?xml version="1.0" encoding="UTF-8"?>
<!DOCTYPE svg PUBLIC "-//W3C//DTD SVG 1.1//EN" "http://www.w3.org/Graphics/SVG/1.1/DTD/svg11.dtd">
<!-- Creator: CorelDRAW -->
<svg xmlns="http://www.w3.org/2000/svg" xml:space="preserve" width="105mm" height="148mm" style="shape-rendering:geometricPrecision; text-rendering:geometricPrecision; image-rendering:optimizeQuality; fill-rule:evenodd; clip-rule:evenodd"
viewBox="0 0 105 148"
 xmlns:xlink="http://www.w3.org/1999/xlink">
 <defs>
  <style type="text/css">
   <![CDATA[
    .fil2 {fill:#008546}
    .fil0 {fill:#029D56}
    .fil10 {fill:#328D65}
    .fil8 {fill:#49896B}
    .fil6 {fill:#59B993}
    .fil9 {fill:#93B7AA}
    .fil4 {fill:#99C7B9}
    .fil5 {fill:#CCCCCC}
    .fil1 {fill:#D9E2E5}
    .fil7 {fill:#E6E6E6}
    .fil3 {fill:white}
   ]]>
  </style>
 </defs>
 <g id="Слой_x0020_1">
  <metadata id="CorelCorpID_0Corel-Layer"/>
  <path class="fil0" d="M49.6726 52.6986l0.0565 0 0 4.7978 -1.1289 0 0 -0.0565 -0.0565 0 0 -8.9747 1.1289 0 0 4.2334zm3.9511 -0.7338l0.5645 0 0 0.0564 0.1128 0 0 0.0565 0.0565 0 0 0.0564 0.0564 0 0 0.0565 0.0565 0 0 0.0564 0.0564 0 0 0.0565 0.0565 0 0 0.0564 0.0564 0 0 0.0565 0.0565 0 0 0.0564 0.0564 0 0 0.0564 0.0564 0 0 0.0565 0.0565 0 0 0.0564 0.0564 0 0 0.0565 0.0565 0 0 0.0564 0.0564 0 0 0.0565 0.0565 0 0 0.0564 0.0564 0 0 0.0565 -0.0564 0 0 0.0564 -0.0565 0 0 0.1129 -0.1129 0 0 0.1129 -0.0564 0 0 0.0564 -0.0565 0 0 0.0565 -0.0564 0 0 0.0564 -0.0564 0 0 0.0565 -0.0565 0 0 0.0564 -0.1129 0 0 0.0564 -0.0564 0 0 0.0565 -0.0565 0 0 0.1129 -0.0564 0 0 0.0564 -0.0565 0 0 0.0565 -0.0564 0 0 0.0564 -0.4516 0 0 -0.0564 -0.0564 0 0 -0.1694 0.0564 0 0 -0.0564 0.0565 0 0 -0.1129 0.0564 0 0 -0.0564 0.0565 0 0 -0.0565 0.0564 0 0 -0.0564 0.1129 0 0 -0.0565 0.0565 0 0 -0.0564 0.0564 0 0 -0.0565 0.0564 0 0 -0.0564 0.0565 0 0 -0.0565 0.0564 0 0 -0.2257 -0.0564 0 0 -0.0565 -0.0565 0 0 -0.0564 -0.0564 0 0 -0.0565 -0.0564 0 0 -0.0564 -0.0565 0 0 -0.1129 -0.1129 0 0 -0.0564 -0.0564 0 0 -0.0565 -0.1129 0 0 -0.1129 -0.0565 0 0 -0.0564 -0.0564 0 0 -0.1129 -0.0564 0 0 -0.0565 -0.0565 0 0 -0.0564zm-1.9755 -2.3707l-0.9596 0 0 -1.1853 3.048 0 0 1.1289 -0.3387 0 0 0.0564 -0.5644 0 0 7.8458 -1.1289 0 0 -3.1044 -0.0564 0 0 -4.7414zm-6.2089 -0.6773l0.0564 0 0 0.3387 0.0564 0 0 0.2257 0.0565 0 0 0.1129 0.0564 0 0 0.3387 0.0565 0 0 0.3387 0.0564 0 0 0.1128 0.0565 0 0 0.0565 0.0564 0 0 -0.1693 0.0565 0 0 -0.2258 0.0564 0 0 -0.1129 0.0565 0 0 -0.4516 0.0564 0 0 -0.1129 0.0564 0 0 -0.4515 0.0565 0 0 -0.1693 0.0564 0 0 -0.2258 1.1289 0 0 0.3951 -0.0564 0 0 0.2822 -0.0565 0 0 0.1693 -0.0564 0 0 0.3387 -0.0565 0 0 0.1129 -0.0564 0 0 0.3387 -0.0564 0 0 0.2257 -0.0565 0 0 0.3387 -0.0564 0 0 0.1129 -0.0565 0 0 0.3387 -0.0564 0 0 0.2257 -0.0565 0 0 0.1694 -0.0564 0 0 0.2258 -0.0565 0 0 0.2822 -0.0564 0 0 0.3387 -0.0564 0 0 0.2822 -0.0565 0 0 0.1129 -0.0564 0 0 0.3951 0.0564 0 0 0.1129 0.0565 0 0 0.3386 0.0564 0 0 0.2258 0.0564 0 0 0.1693 0.0565 0 0 0.1129 0.0564 0 0 0.3951 0.0565 0 0 0.2258 0.0564 0 0 0.1694 0.0565 0 0 0.2822 0.0564 0 0 0.2258 0.0565 0 0 0.2257 0.0564 0 0 0.1694 0.0564 0 0 0.2822 0.0565 0 0 0.2258 0.0564 0 0 0.2258 0.0565 0 0 0.1693 0.0564 0 0 0.2822 0.0565 0 0 0.0565 0.0564 0 0 0.4515 -1.1289 0 0 -0.1129 -0.0564 0 0 -0.1693 -0.0565 0 0 -0.2258 -0.0564 0 0 -0.1693 -0.0565 0 0 -0.3951 -0.0564 0 0 -0.2258 -0.0564 0 0 -0.1693 -0.0565 0 0 -0.3952 -0.0564 0 0 -0.0564 -0.0565 0 0 0.0564 -0.0564 0 0 0.2258 -0.0565 0 0 0.2258 -0.0564 0 0 0.3387 -0.0565 0 0 0.1129 -0.0564 0 0 0.1693 -0.0565 0 0 0.3951 -0.0564 0 0 0.2258 -0.0564 0 0 0.1129 -1.1289 0 0 -0.2823 0.0564 0 0 -0.1693 0.0565 0 0 -0.3387 0.0564 0 0 -0.2257 0.0564 0 0 -0.3387 0.0565 0 0 -0.1129 0.0564 0 0 -0.3387 0.0565 0 0 -0.2257 0.0564 0 0 -0.2258 0.0565 0 0 -0.2258 0.0564 0 0 -0.2258 0.0565 0 0 -0.2258 0.0564 0 0 -0.2257 0.0564 0 0 -0.3387 0.0565 0 0 -0.2258 0.0564 0 0 -0.2258 0.0565 0 0 -0.2257 0.0564 0 0 -0.5645 -0.0564 0 0 -0.2258 -0.0565 0 0 -0.2257 -0.0564 0 0 -0.1129 -0.0565 0 0 -0.2823 -0.0564 0 0 -0.1128 -0.0564 0 0 -0.3387 -0.0565 0 0 -0.1129 -0.0564 0 0 -0.3387 -0.0565 0 0 -0.1129 -0.0564 0 0 -0.2822 -0.0565 0 0 -0.2822 -0.0564 0 0 -0.1693 -0.0565 0 0 -0.3387 -0.0564 0 0 -0.2822 -0.0564 0 0 -0.0565 -0.0565 0 0 -0.2257 -0.0564 0 0 -0.3387 -0.0565 0 0 -0.3387 0.0565 0 0 -0.0564 1.016 0 0 0.0564 0.0564 0 0 0.2258 0.0565 0 0 0.1129zm-7.3378 3.9511l0.0564 0 0 -0.1129 0.0565 0 0 -0.0564 0.0564 0 0 -0.0565 0.0565 0 0 -0.0564 0.0564 0 0 -0.0565 0.0565 0 0 -0.1128 0.0564 0 0 -0.1129 0.1129 0 0 -0.0565 0.0564 0 0 -0.0564 0.0565 0 0 -0.0565 0.1693 0 0 -0.0564 0.4516 0 0 0.1129 -0.0565 0 0 0.1693 -0.0564 0 0 0.0565 -0.0565 0 0 0.0564 -0.0564 0 0 0.0564 -0.1129 0 0 0.0565 -0.1129 0 0 0.1693 -0.1129 0 0 0.0565 -0.0564 0 0 0.0564 -0.0565 0 0 0.1129 -0.1129 0 0 0.1693 0.0565 0 0 0.0565 0.0564 0 0 0.0564 0.0565 0 0 0.0565 0.0564 0 0 0.0564 0.1129 0 0 0.0565 0.0565 0 0 0.0564 0.0564 0 0 0.0564 0.0564 0 0 0.0565 0.0565 0 0 0.0564 0.0564 0 0 0.0565 0.1694 0 0 0.0564 0.1129 0 0 0.2258 0.0564 0 0 0.0564 0.1693 0 0 0.0565 0.1694 0 0 0.0564 0.0564 0 0 0.1694 -0.0564 0 0 0.4515 0.0564 0 0 0.2258 0.0565 0 0 -0.4516 0.0564 0 0 0.7338 -0.0564 0 0 0.8467 0.1128 0 0 1.016 0.0565 0 0 -2.6529 0.0564 0 0 -1.524 -0.0564 0 0 -4.4027 0.0564 0 0 -0.0564 2.9916 0 0 1.1853 -1.8627 0 0 2.7658 1.2418 0 0 0.0564 0.0564 0 0 1.016 -0.0564 0 0 0.0565 -1.2418 0 0 2.7093 0.0565 0 0 0.1129 1.8626 0 0 1.0725 -0.0564 0 0 0.0564 -2.8787 0 0 -0.0564 -0.0564 0 0 -1.6369 -0.0565 0 0 1.6933 0.0565 0 0 0.0565 1.4111 0 0 0.0564 -1.1853 0 0 0.0564 0.1128 0 0 0.1129 0.1694 0 0 0.0565 0.1129 0 0 0.0564 0.2257 0 0 -0.0564 0.1129 0 0 0.0564 0.4516 0 0 0.1694 1.8062 0 0 -0.0565 0.9031 0 0 0.0565 0.9031 0 0 -0.0565 0.9031 0 0 0.1129 9.9343 0 0 -0.1129 0.0564 0 0 -10.16 -0.0564 0 0 -0.0565 -12.5872 0 0 0.0565 -6.4911 0 0 0.1129 -0.0564 0 0 2.7658 0.0564 0 0 -0.0565 0.1129 0 0 0.4516 0.1694 0 0 0.1129 0.0564 0 0 0.0564 0.0565 0 0 0.0564 0.0564 0 0 0.5645 0.1129 0 0 -0.1129 0.0564 0 0 0.0564 0.0565 0 0 0.0565 0.0564 0 0 0.1129 0.0565 0 0 0.4515 -0.1129 0 0 0.1694 -0.0565 0 0 0.2822 0.1129 0 0 0.0564 -0.0564 0 0 0.1129 0.1129 0 0 -0.1693 0.0564 0 0 -0.0564 0.0565 0 0 -0.1129 0.1693 0 0 0.0564z"/>
  <path class="fil1" d="M36.9162 47.675l14.5062 0 0 -0.0564 4.8542 0 0 10.6115 -0.0564 0 0 0.0565 -19.2476 0 0 -0.0565 -0.0564 0 0 -10.5551zm-0.6774 -0.9031l-0.1693 0 0 0.0565 -0.0565 0 0 0.1128 -0.0564 0 0 0.0565 -0.0565 0 0 0.1129 -0.0564 0 0 1.3546 0.0564 0 0 10.3858 0.0565 0 0 0.1129 0.0564 0 0 0.1129 0.0565 0 0 0.0564 0.0564 0 0 0.0565 0.0565 0 0 0.0564 0.1129 0 0 0.0565 5.4751 0 0 -0.0565 15.1271 0 0 -0.0564 0.1129 0 0 -0.0565 0.0564 0 0 -0.0564 0.0565 0 0 -0.0564 0.0564 0 0 -0.0565 0.0565 0 0 -0.1129 0.0564 0 0 -4.9671 -0.0564 0 0 -6.7733 -0.0565 0 0 -0.1129 -0.0564 0 0 -0.1129 -0.0565 0 0 -0.0564 -0.0564 0 0 -0.1129 -20.7716 0 0 0.0564z"/>
  <path class="fil2" d="M40.1899 54.5048l-0.0564 0 0 2.6529 -0.0565 0 0 -1.016 -0.1128 0 0 -0.8467 0.0564 0 0 -0.7338 -0.0564 0 0 0.4516 -0.0565 0 0 -0.2258 -0.0564 0 0 -0.4515 0.0564 0 0 -0.1694 -0.0564 0 0 -0.0564 -0.1694 0 0 -0.0565 -0.1693 0 0 -0.0564 -0.0564 0 0 -0.2258 -0.1129 0 0 -0.0564 -0.1129 0 0 0.0564 0.0564 0 0 0.0565 0.0565 0 0 0.0564 0.0564 0 0 0.0565 -0.1129 0 0 0.1128 -0.508 0 0 -0.0564 -0.0564 0 0 -0.0564 -0.0565 0 0 -0.0565 -0.0564 0 0 -0.0564 -0.0565 0 0 -0.0565 -0.0564 0 0 -0.0564 -0.0564 0 0 -0.0565 -0.0565 0 0 -0.0564 -0.0564 0 0 -0.1129 -0.0565 0 0 -0.0564 -0.1129 0 0 -0.0565 -0.0564 0 0 -0.0564 -0.0565 0 0 -0.0565 -0.0564 0 0 -0.3386 0.0564 0 0 -0.0565 0.0565 0 0 -0.0564 -0.1693 0 0 0.1129 -0.0565 0 0 0.0564 -0.0564 0 0 0.1693 -0.1129 0 0 -0.1129 0.0564 0 0 -0.0564 -0.1129 0 0 -0.2822 0.0565 0 0 -0.1694 0.1129 0 0 -0.4515 -0.0565 0 0 -0.1129 -0.0564 0 0 -0.0565 -0.0565 0 0 -0.0564 -0.0564 0 0 0.1129 -0.1129 0 0 -0.5645 -0.0564 0 0 -0.0564 -0.0565 0 0 -0.0564 -0.0564 0 0 -0.1129 -0.1694 0 0 -0.4516 -0.1129 0 0 0.0565 -0.0564 0 0 -2.7658 0.0564 0 0 -0.1129 6.4911 0 0 -0.0565 12.5872 0 0 0.0565 0.0564 0 0 10.16 -0.0564 0 0 0.1129 -9.9343 0 0 -0.1129 -0.9031 0 0 0.0565 -0.9031 0 0 -0.0565 -0.9031 0 0 0.0565 -1.8062 0 0 -0.1694 -0.4516 0 0 -0.0564 -0.1129 0 0 0.0564 -0.2257 0 0 -0.0564 -0.1129 0 0 -0.0565 -0.1694 0 0 -0.1129 -0.1128 0 0 -0.0564 1.1853 0 0 -0.0564 -1.4111 0 0 -0.0565 -0.0565 0 0 -3.048zm11.2325 -6.8298l-14.5062 0 0 10.5551 0.0564 0 0 0.0565 19.2476 0 0 -0.0565 0.0564 0 0 -10.6115 -4.8542 0 0 0.0564z"/>
  <polygon class="fil3" points="46.173,56.5933 46.2295,56.5933 46.2295,56.819 46.2859,56.819 46.2859,56.9884 46.3988,56.9884 46.3988,57.1577 46.4553,57.1577 46.4553,57.2706 46.6246,57.2706 46.6246,57.0448 46.7375,57.0448 46.7375,56.8755 46.8504,56.8755 46.8504,57.0448 47.1326,57.0448 47.1326,56.9884 47.189,56.9884 47.189,57.0448 47.2455,57.0448 47.2455,56.9884 47.3019,56.9884 47.3019,56.9319 47.3584,56.9319 47.3584,56.5933 47.3019,56.5933 47.3019,56.3675 47.2455,56.3675 47.2455,56.1417 47.189,56.1417 47.189,55.8595 47.1326,55.8595 47.1326,55.6901 47.0762,55.6901 47.0762,55.4644 47.0197,55.4644 47.0197,55.2386 46.9633,55.2386 46.9633,54.9564 46.9068,54.9564 46.9068,54.787 46.8504,54.787 46.8504,54.5612 46.7939,54.5612 46.7939,54.1661 46.7375,54.1661 46.7375,54.0532 46.681,54.0532 46.681,53.8839 46.6246,53.8839 46.6246,53.6581 46.5682,53.6581 46.5682,53.3195 46.5117,53.3195 46.5117,53.2066 46.4553,53.2066 46.4553,52.8115 46.5117,52.8115 46.5117,52.6986 46.5682,52.6986 46.5682,52.4164 46.6246,52.4164 46.6246,52.0777 46.681,52.0777 46.681,51.7955 46.7375,51.7955 46.7375,51.5697 46.7939,51.5697 46.7939,51.4003 46.8504,51.4003 46.8504,51.1746 46.9068,51.1746 46.9068,50.8359 46.9633,50.8359 46.9633,50.723 47.0197,50.723 47.0197,50.3843 47.0762,50.3843 47.0762,50.1586 47.1326,50.1586 47.1326,49.8199 47.189,49.8199 47.189,49.707 47.2455,49.707 47.2455,48.7475 47.1326,48.7475 47.1326,48.691 47.0762,48.691 47.0762,48.7475 46.7939,48.7475 46.7939,48.8039 46.5682,48.8039 46.5682,48.7475 46.2295,48.7475 46.2295,48.9168 46.173,48.9168 46.173,49.3683 46.1166,49.3683 46.1166,49.4812 46.0602,49.4812 46.0602,49.9328 46.0037,49.9328 46.0037,50.0457 45.9473,50.0457 45.9473,50.2715 45.8908,50.2715 45.8908,50.4408 45.8344,50.4408 45.8344,50.3843 45.7779,50.3843 45.7779,50.2715 45.7215,50.2715 45.7215,49.9328 45.665,49.9328 45.665,49.5941 45.6086,49.5941 45.6086,49.4812 45.5521,49.4812 45.5521,49.2555 45.4957,49.2555 45.4957,48.9168 45.3828,48.9168 45.3828,48.9732 45.3264,48.9732 45.3264,48.9168 45.2699,48.9168 45.2699,48.8603 45.2135,48.8603 45.2135,48.8039 45.157,48.8039 45.157,48.7475 44.9313,48.7475 44.9313,48.8603 44.7055,48.8603 44.7055,48.9168 44.4233,48.9168 44.4233,48.7475 44.3104,48.7475 44.3104,49.2555 44.3668,49.2555 44.3668,49.4812 44.4233,49.4812 44.4233,49.5377 44.4797,49.5377 44.4797,49.8199 44.5361,49.8199 44.5361,50.1586 44.5926,50.1586 44.5926,50.3279 44.649,50.3279 44.649,50.6101 44.7055,50.6101 44.7055,50.8923 44.7619,50.8923 44.7619,51.0052 44.8184,51.0052 44.8184,51.3439 44.8748,51.3439 44.8748,51.4568 44.9313,51.4568 44.9313,51.7955 44.9877,51.7955 44.9877,51.9083 45.0441,51.9083 45.0441,52.1906 45.1006,52.1906 45.1006,52.3035 45.157,52.3035 45.157,52.5292 45.2135,52.5292 45.2135,52.755 45.2699,52.755 45.2699,53.3195 45.2135,53.3195 45.2135,53.5452 45.157,53.5452 45.157,53.771 45.1006,53.771 45.1006,53.9968 45.0441,53.9968 45.0441,54.3355 44.9877,54.3355 44.9877,54.5612 44.9313,54.5612 44.9313,54.787 44.8748,54.787 44.8748,55.0128 44.8184,55.0128 44.8184,55.2386 44.7619,55.2386 44.7619,55.4644 44.7055,55.4644 44.7055,55.6901 44.649,55.6901 44.649,56.0288 44.5926,56.0288 44.5926,56.1417 44.5361,56.1417 44.5361,56.4804 44.4797,56.4804 44.4797,56.7061 44.4233,56.7061 44.4233,57.2141 44.7619,57.2141 44.7619,57.327 45.2699,57.327 45.2699,57.2706 45.3828,57.2706 45.3828,57.2141 45.4393,57.2141 45.4393,57.1577 45.5521,57.1577 45.5521,56.7626 45.6086,56.7626 45.6086,56.5933 45.665,56.5933 45.665,56.4804 45.7215,56.4804 45.7215,56.1417 45.7779,56.1417 45.7779,55.9159 45.8344,55.9159 45.8344,55.6901 45.8908,55.6901 45.8908,55.6337 45.9473,55.6337 45.9473,55.6901 46.0037,55.6901 46.0037,56.0853 46.0602,56.0853 46.0602,56.2546 46.1166,56.2546 46.1166,56.4804 46.173,56.4804 "/>
  <polygon class="fil3" points="40.1899,55.8595 40.2464,55.8595 40.2464,57.4964 40.3028,57.4964 40.3028,57.5528 43.1815,57.5528 43.1815,57.4964 43.2379,57.4964 43.2379,56.4239 41.3753,56.4239 41.3753,56.311 41.3188,56.311 41.3188,53.5452 41.6575,53.5452 41.6575,53.4888 42.2219,53.4888 42.2219,52.6421 42.109,52.6421 42.109,52.5857 41.601,52.5857 41.601,52.5292 41.3188,52.5292 41.3188,52.4728 41.2624,52.4728 41.2624,49.6506 43.125,49.6506 43.125,48.6346 43.0686,48.6346 43.0686,48.5781 40.2464,48.5781 40.2464,48.6346 40.1899,48.6346 "/>
  <polygon class="fil1" points="51.7046,56.7061 51.7611,56.7061 51.7611,57.0448 52.0433,57.0448 52.0433,57.1013 52.0997,57.1013 52.0997,57.0448 52.2126,57.0448 52.2126,57.1013 52.2691,57.1013 52.2691,57.1577 52.3255,57.1577 52.3255,57.2706 52.6077,57.2706 52.6077,57.0448 52.6642,57.0448 52.6642,56.9884 52.7206,56.9884 52.7206,56.9319 52.777,56.9319 52.777,49.5377 52.8335,49.5377 52.8335,49.4812 53.3979,49.4812 53.3979,49.3683 53.4544,49.3683 53.4544,49.3119 53.3979,49.3119 53.3979,48.9168 53.4544,48.9168 53.4544,48.8603 53.5673,48.8603 53.5673,48.5781 53.3979,48.5781 53.3979,48.5217 50.9708,48.5217 50.9708,48.691 51.0273,48.691 51.0273,48.8039 50.9708,48.8039 50.9708,49.1426 50.9144,49.1426 50.9144,49.3683 50.9708,49.3683 50.9708,49.5377 51.6482,49.5377 51.6482,54.3355 51.7046,54.3355 "/>
  <polygon class="fil3" points="48.5437,54.3355 48.6002,54.3355 48.6002,55.1257 48.6566,55.1257 48.6566,56.4804 48.7131,56.4804 48.7131,56.9884 48.7695,56.9884 48.7695,56.819 49.0517,56.819 49.0517,56.8755 49.1082,56.8755 49.1082,56.9319 49.4468,56.9319 49.4468,56.8755 49.5033,56.8755 49.5033,56.7626 49.6726,56.7626 49.6726,48.4652 48.5437,48.4652 "/>
  <polygon class="fil4" points="51.6482,49.5941 51.6482,49.5377 50.9708,49.5377 50.9708,49.3683 50.9144,49.3683 50.9144,49.1426 50.9708,49.1426 50.9708,48.8039 51.0273,48.8039 51.0273,48.691 50.9708,48.691 50.9708,48.5217 53.3979,48.5217 53.3979,48.5781 53.5673,48.5781 53.5673,48.8603 53.4544,48.8603 53.4544,48.9168 53.3979,48.9168 53.3979,49.3119 53.4544,49.3119 53.4544,49.3683 53.3979,49.3683 53.3979,49.4812 52.8335,49.4812 52.8335,49.5377 52.777,49.5377 52.777,56.9319 52.7206,56.9319 52.7206,56.9884 52.6642,56.9884 52.6642,57.0448 52.6077,57.0448 52.6077,57.2706 52.3255,57.2706 52.3255,57.1577 52.2691,57.1577 52.2691,57.1013 52.2126,57.1013 52.2126,57.0448 52.0997,57.0448 52.0997,57.1013 52.0433,57.1013 52.0433,57.0448 51.7611,57.0448 51.7611,56.7061 51.7046,56.7061 51.7046,57.4399 52.8335,57.4399 52.8335,49.5941 53.3979,49.5941 53.3979,49.5377 53.7366,49.5377 53.7366,48.4088 50.6886,48.4088 50.6886,49.5941 "/>
  <polygon class="fil5" points="53.6237,52.0212 53.6802,52.0212 53.6802,52.0777 53.7366,52.0777 53.7366,52.1906 53.793,52.1906 53.793,52.247 53.8495,52.247 53.8495,52.3599 53.9624,52.3599 53.9624,52.4164 54.0188,52.4164 54.0188,52.4728 54.1317,52.4728 54.1317,52.5857 54.1882,52.5857 54.1882,52.6421 54.2446,52.6421 54.2446,52.6986 54.301,52.6986 54.301,52.755 54.3575,52.755 54.3575,52.8115 54.4139,52.8115 54.4139,53.0372 54.3575,53.0372 54.3575,53.0937 54.301,53.0937 54.301,53.1501 54.2446,53.1501 54.2446,53.2066 54.1882,53.2066 54.1882,53.263 54.1317,53.263 54.1317,53.3195 54.0188,53.3195 54.0188,53.3759 53.9624,53.3759 53.9624,53.4324 53.9059,53.4324 53.9059,53.4888 53.8495,53.4888 53.8495,53.6017 53.793,53.6017 53.793,53.6581 53.7366,53.6581 53.7366,53.8275 53.793,53.8275 53.793,53.8839 54.2446,53.8839 54.2446,53.8275 54.301,53.8275 54.301,53.771 54.3575,53.771 54.3575,53.7146 54.4139,53.7146 54.4139,53.6017 54.4704,53.6017 54.4704,53.5452 54.5268,53.5452 54.5268,53.4888 54.6397,53.4888 54.6397,53.4324 54.6962,53.4324 54.6962,53.3759 54.7526,53.3759 54.7526,53.3195 54.809,53.3195 54.809,53.263 54.8655,53.263 54.8655,53.2066 54.9219,53.2066 54.9219,53.0937 55.0348,53.0937 55.0348,52.9808 55.0913,52.9808 55.0913,52.9244 55.1477,52.9244 55.1477,52.8679 55.0913,52.8679 55.0913,52.8115 55.0348,52.8115 55.0348,52.755 54.9784,52.755 54.9784,52.6986 54.9219,52.6986 54.9219,52.6421 54.8655,52.6421 54.8655,52.5857 54.809,52.5857 54.809,52.5292 54.7526,52.5292 54.7526,52.4728 54.6962,52.4728 54.6962,52.4164 54.6397,52.4164 54.6397,52.3599 54.5833,52.3599 54.5833,52.3035 54.5268,52.3035 54.5268,52.247 54.4704,52.247 54.4704,52.1906 54.4139,52.1906 54.4139,52.1341 54.3575,52.1341 54.3575,52.0777 54.301,52.0777 54.301,52.0212 54.1882,52.0212 54.1882,51.9648 53.6237,51.9648 "/>
  <polygon class="fil4" points="48.5437,54.3355 48.5437,57.4399 48.6002,57.4399 48.6002,57.4964 49.7291,57.4964 49.7291,52.6986 49.6726,52.6986 49.6726,56.7626 49.5033,56.7626 49.5033,56.8755 49.4468,56.8755 49.4468,56.9319 49.1082,56.9319 49.1082,56.8755 49.0517,56.8755 49.0517,56.819 48.7695,56.819 48.7695,56.9884 48.7131,56.9884 48.7131,56.4804 48.6566,56.4804 48.6566,55.1257 48.6002,55.1257 48.6002,54.3355 "/>
  <polygon class="fil6" points="40.1899,52.9808 40.1899,48.6346 40.2464,48.6346 40.2464,48.5781 43.0686,48.5781 43.0686,48.6346 43.125,48.6346 43.125,49.6506 41.2624,49.6506 41.2624,52.4728 41.3188,52.4728 41.3188,49.707 43.1815,49.707 43.1815,48.5217 40.1899,48.5217 40.1899,48.5781 40.1335,48.5781 40.1335,52.9808 "/>
  <polygon class="fil7" points="38.7224,53.3195 38.7224,53.263 38.6659,53.263 38.6659,53.2066 38.6095,53.2066 38.6095,53.1501 38.553,53.1501 38.553,52.9808 38.6659,52.9808 38.6659,52.8679 38.7224,52.8679 38.7224,52.8115 38.7788,52.8115 38.7788,52.755 38.8917,52.755 38.8917,52.5857 38.9482,52.5857 38.9482,52.4728 39.061,52.4728 39.061,52.3035 38.8353,52.3035 38.8353,52.3599 38.7224,52.3599 38.7224,52.4164 38.6095,52.4164 38.6095,52.4728 38.4966,52.4728 38.4966,52.5292 38.3837,52.5292 38.3837,52.5857 38.3273,52.5857 38.3273,52.6421 38.2708,52.6421 38.2708,52.6986 38.2144,52.6986 38.2144,52.755 38.1579,52.755 38.1579,52.8679 38.045,52.8679 38.045,52.9244 37.9886,52.9244 37.9886,53.263 38.045,53.263 38.045,53.3195 38.1015,53.3195 38.1015,53.3759 38.1579,53.3759 38.1579,53.4324 38.2708,53.4324 38.2708,53.4888 38.3273,53.4888 38.3273,53.6017 38.3837,53.6017 38.3837,53.6581 38.4966,53.6581 38.4966,53.6017 38.6095,53.6017 38.6095,53.6581 38.6659,53.6581 38.6659,53.5452 38.7224,53.5452 38.7224,53.4324 38.6659,53.4324 38.6659,53.3759 38.6095,53.3759 38.6095,53.3195 "/>
  <polygon class="fil4" points="47.3584,56.7626 47.3584,56.9319 47.3019,56.9319 47.3019,56.9884 47.2455,56.9884 47.2455,57.0448 47.189,57.0448 47.189,56.9884 47.1326,56.9884 47.1326,57.0448 46.8504,57.0448 46.8504,56.8755 46.7375,56.8755 46.7375,57.0448 46.6246,57.0448 46.6246,57.2706 46.4553,57.2706 46.4553,57.1577 46.3988,57.1577 46.3988,56.9884 46.2859,56.9884 46.2859,56.819 46.2295,56.819 46.2295,56.5933 46.173,56.5933 46.173,56.8755 46.2295,56.8755 46.2295,57.0448 46.2859,57.0448 46.2859,57.2706 46.3424,57.2706 46.3424,57.4399 46.3988,57.4399 46.3988,57.5528 47.5277,57.5528 47.5277,57.1013 47.4713,57.1013 47.4713,57.0448 47.4148,57.0448 47.4148,56.7626 "/>
  <polygon class="fil4" points="41.3188,53.6017 42.5606,53.6017 42.5606,53.5452 42.617,53.5452 42.617,52.5292 42.5606,52.5292 42.5606,52.4728 41.3188,52.4728 41.3188,52.5292 41.601,52.5292 41.601,52.5857 42.109,52.5857 42.109,52.6421 42.2219,52.6421 42.2219,53.4888 41.6575,53.4888 41.6575,53.5452 41.3188,53.5452 "/>
  <polygon class="fil8" points="38.4402,53.6581 38.4402,53.7146 38.4966,53.7146 38.4966,53.771 38.553,53.771 38.553,53.8275 38.6095,53.8275 38.6095,53.8839 38.6659,53.8839 38.6659,53.9404 38.7224,53.9404 38.7224,53.9968 38.7788,53.9968 38.7788,54.0532 39.2868,54.0532 39.2868,53.9404 39.3997,53.9404 39.3997,53.8839 39.3433,53.8839 39.3433,53.8275 39.2868,53.8275 39.2868,53.771 39.2304,53.771 39.2304,53.7146 39.1739,53.7146 39.1739,53.6581 39.1175,53.6581 39.1175,53.6017 39.061,53.6017 39.061,53.5452 39.0046,53.5452 39.0046,53.4888 38.9482,53.4888 38.9482,53.4324 38.8917,53.4324 38.8917,53.3759 38.7788,53.3759 38.7788,53.3195 38.6095,53.3195 38.6095,53.3759 38.6659,53.3759 38.6659,53.4324 38.7224,53.4324 38.7224,53.5452 38.6659,53.5452 38.6659,53.6581 38.6095,53.6581 38.6095,53.6017 38.4966,53.6017 38.4966,53.6581 "/>
  <polygon class="fil9" points="44.3104,48.9168 44.3104,48.7475 44.4233,48.7475 44.4233,48.9168 44.7055,48.9168 44.7055,48.8603 44.9313,48.8603 44.9313,48.7475 45.157,48.7475 45.157,48.8039 45.2135,48.8039 45.2135,48.8603 45.2699,48.8603 45.2699,48.9168 45.3264,48.9168 45.3264,48.9732 45.3828,48.9732 45.3828,48.9168 45.4393,48.9168 45.4393,48.8039 45.3828,48.8039 45.3828,48.5781 45.3264,48.5781 45.3264,48.5217 44.3104,48.5217 44.3104,48.5781 44.2539,48.5781 44.2539,48.9168 "/>
  <polygon class="fil4" points="47.2455,49.3683 47.3019,49.3683 47.3019,49.199 47.3584,49.199 47.3584,48.9168 47.4148,48.9168 47.4148,48.5217 46.2859,48.5217 46.2859,48.7475 46.5682,48.7475 46.5682,48.8039 46.7939,48.8039 46.7939,48.7475 47.0762,48.7475 47.0762,48.691 47.1326,48.691 47.1326,48.7475 47.2455,48.7475 "/>
  <polygon class="fil9" points="45.4957,57.1577 45.4393,57.1577 45.4393,57.2141 45.3828,57.2141 45.3828,57.2706 45.2699,57.2706 45.2699,57.327 44.7619,57.327 44.7619,57.2141 44.4233,57.2141 44.4233,57.0448 44.3668,57.0448 44.3668,57.2141 44.3104,57.2141 44.3104,57.4964 45.4393,57.4964 45.4393,57.3835 45.4957,57.3835 "/>
  <polygon class="fil10" points="38.4402,52.5292 38.4966,52.5292 38.4966,52.4728 38.6095,52.4728 38.6095,52.4164 38.7224,52.4164 38.7224,52.3599 38.8353,52.3599 38.8353,52.3035 39.061,52.3035 39.061,52.4728 38.9482,52.4728 38.9482,52.5857 39.0046,52.5857 39.0046,52.5292 39.1175,52.5292 39.1175,52.4728 39.1739,52.4728 39.1739,52.4164 39.2304,52.4164 39.2304,52.3599 39.2868,52.3599 39.2868,52.1906 39.3433,52.1906 39.3433,52.0777 38.8917,52.0777 38.8917,52.1341 38.7224,52.1341 38.7224,52.1906 38.6659,52.1906 38.6659,52.247 38.6095,52.247 38.6095,52.3035 38.4966,52.3035 38.4966,52.4164 38.4402,52.4164 "/>
 </g>
</svg>
